<?xml version="1.0" encoding="UTF-8" standalone="no"?>
<!-- Created with Inkscape (http://www.inkscape.org/) -->

<svg
   xmlns:dc="http://purl.org/dc/elements/1.1/"
   xmlns:cc="http://creativecommons.org/ns#"
   xmlns:rdf="http://www.w3.org/1999/02/22-rdf-syntax-ns#"
   xmlns:svg="http://www.w3.org/2000/svg"
   xmlns="http://www.w3.org/2000/svg"
   xmlns:sodipodi="http://sodipodi.sourceforge.net/DTD/sodipodi-0.dtd"
   xmlns:inkscape="http://www.inkscape.org/namespaces/inkscape"
   width="210mm"
   height="297mm"
   id="svg3870"
   version="1.1"
   inkscape:version="0.48.3.1 r9886"
   sodipodi:docname="Neues Dokument 7">
  <defs
     id="defs3872" />
  <sodipodi:namedview
     id="base"
     pagecolor="#ffffff"
     bordercolor="#666666"
     borderopacity="1.0"
     inkscape:pageopacity="0.0"
     inkscape:pageshadow="2"
     inkscape:zoom="0.94739246"
     inkscape:cx="140.35868"
     inkscape:cy="526.18109"
     inkscape:document-units="px"
     inkscape:current-layer="layer1"
     showgrid="false"
     inkscape:window-width="1855"
     inkscape:window-height="1176"
     inkscape:window-x="65"
     inkscape:window-y="24"
     inkscape:window-maximized="1" />
  <metadata
     id="metadata3875">
    <rdf:RDF>
      <cc:Work
         rdf:about="">
        <dc:format>image/svg+xml</dc:format>
        <dc:type
           rdf:resource="http://purl.org/dc/dcmitype/StillImage" />
        <dc:title></dc:title>
      </cc:Work>
    </rdf:RDF>
  </metadata>
  <g
     inkscape:label="Ebene 1"
     inkscape:groupmode="layer"
     id="layer1">
    <path
       style="fill:none;stroke:#000000;stroke-width:5;stroke-linecap:butt;stroke-linejoin:miter;stroke-opacity:1;stroke-miterlimit:4;stroke-dasharray:none"
       d="m 300.8257,439.09997 c -55.94303,34.4806 -73.96559,-22.03655 -79.16467,-44.33221 -7.88534,-33.81542 -8.01634,-41.78192 2e-5,-60.16514 5.37377,-12.32319 16.66774,-23.61462 29.5548,-27.44375 19.85026,-5.8981 43.86259,-0.73708 61.22067,10.55529 7.44359,4.84246 13.92087,13.3274 14.7774,22.16611 0.88237,9.10526 -10.55529,25.33268 -10.55529,25.33268"
       id="path3882"
       inkscape:connector-curvature="0"
       sodipodi:nodetypes="csaaaac" />
    <path
       style="fill:none;stroke:#000000;stroke-width:5;stroke-linecap:butt;stroke-linejoin:miter;stroke-opacity:1;stroke-miterlimit:4;stroke-dasharray:none"
       d="m 301.88123,385.268 c -9.49976,7.3887 -11.43857,17.65165 -8.44423,26.38822 7.46737,21.78746 34.30686,42.9969 56.99855,39.05456 27.80558,-4.8308 44.16613,-40.91725 49.60986,-68.60936 4.60893,-23.44554 0.85354,-53.66001 -16.88847,-69.6649 -21.35558,-19.26465 -69.6649,-26.38822 -85.49783,-11.61082"
       id="path3884"
       inkscape:connector-curvature="0"
       sodipodi:nodetypes="caaaac" />
    <path
       style="fill:none;stroke:#000000;stroke-width:5;stroke-linecap:butt;stroke-linejoin:miter;stroke-opacity:1;stroke-miterlimit:4;stroke-dasharray:none"
       d="m 288.15935,315.6031 c -8.44423,29.5548 -2.35725,42.35888 10.55529,52.77644 13.55968,10.93967 36.96106,18.49648 37.99903,35.88797 0.65486,10.9724 -13.72187,22.16611 -21.11057,25.3327"
       id="path3886"
       inkscape:connector-curvature="0"
       sodipodi:nodetypes="csac" />
  </g>
</svg>
